# xmcd CD database file
#
# Track frame offsets:
#	150
#	26380
#	46092
#	64790
#	83692
#	107610
#	130905
#	149040
#	161702
#	182770
#
# Disc length: 2739 seconds
#
# Revision: 0
# Processed by: cddbd v1.5PL3 Copyright (c) Steve Scherf et al.
# Submitted via: CDex 1.40Release
#
DISCID=820ab10a
DTITLE=尾崎　亜美 - 月の魔法
DYEAR=1993
DGENRE=Vocal
TTITLE0=Graduation〜扉を抜けて〜
TTITLE1=月の魔法
TTITLE2=待ち合わせまで あと 5 Minutes
TTITLE3=Frame
TTITLE4=時の振り子を止めてごらん
TTITLE5=And Other Stories
TTITLE6=グルメ天国
TTITLE7=”へるぷみぃ”のRecipe
TTITLE8=希望的観測
TTITLE9=真夜中の陽だまり
EXTD=YEAR: 1993
EXTT0=
EXTT1=
EXTT2=
EXTT3=
EXTT4=
EXTT5=
EXTT6=
EXTT7=
EXTT8=
EXTT9=
PLAYORDER=
